<mxfile host="Electron" modified="2023-11-16T10:07:02.095Z" agent="Mozilla/5.0 (Windows NT 10.0; Win64; x64) AppleWebKit/537.36 (KHTML, like Gecko) draw.io/21.6.5 Chrome/114.0.5735.243 Electron/25.3.1 Safari/537.36" etag="xX_PxsnRj91QgjSdoc8Q" version="21.6.5" type="device">
  <diagram name="Seite-1" id="aL4wHT04-G17cIAgNN2K">
    <mxGraphModel dx="1434" dy="964" grid="1" gridSize="10" guides="1" tooltips="1" connect="1" arrows="1" fold="1" page="1" pageScale="1" pageWidth="827" pageHeight="1169" math="0" shadow="0">
      <root>
        <mxCell id="0" />
        <mxCell id="1" parent="0" />
        <mxCell id="krXX1VKRWJ8w1nw-8fzc-2" value="" style="shape=image;verticalLabelPosition=bottom;labelBackgroundColor=default;verticalAlign=top;aspect=fixed;imageAspect=0;image=data:image/svg+xml,PHN2ZyB4bWxucz0iaHR0cDovL3d3dy53My5vcmcvMjAwMC9zdmciIGZpbGw9ImN1cnJlbnRDb2xvciIgY2xhc3M9ImJpIGJpLWRvb3Itb3BlbiIgdmlld0JveD0iMCAwIDE2IDE2IiBoZWlnaHQ9IjFlbSIgd2lkdGg9IjFlbSI+JiN4YTsgIDxwYXRoIGQ9Ik0xIDE1LjVhLjUuNSAwIDAgMSAuNS0uNWgxM2EuNS41IDAgMCAxIDAgMWgtMTNhLjUuNSAwIDAgMS0uNS0uNXpNMTEuNSAySDExVjFoLjVBMS41IDEuNSAwIDAgMSAxMyAyLjVWMTVoLTFWMi41YS41LjUgMCAwIDAtLjUtLjV6IiBmaWxsLXJ1bGU9ImV2ZW5vZGQiLz4mI3hhOyAgPHBhdGggZD0iTTEwLjgyOC4xMjJBLjUuNSAwIDAgMSAxMSAuNVYxNWgtMVYxLjA3N2wtNiAuODU3VjE1SDNWMS41YS41LjUgMCAwIDEgLjQzLS40OTVsNy0xYS41LjUgMCAwIDEgLjM5OC4xMTd6IiBmaWxsLXJ1bGU9ImV2ZW5vZGQiLz4mI3hhOyAgPHBhdGggZD0iTTggOWMwIC41NTIuMjI0IDEgLjUgMXMuNS0uNDQ4LjUtMS0uMjI0LTEtLjUtMS0uNS40NDgtLjUgMXoiLz4mI3hhOzwvc3ZnPg==;imageBackground=none;fontColor=#6E6E6E;opacity=60;" parent="1" vertex="1">
          <mxGeometry x="699" y="270" width="128" height="128" as="geometry" />
        </mxCell>
        <mxCell id="krXX1VKRWJ8w1nw-8fzc-22" style="edgeStyle=orthogonalEdgeStyle;rounded=0;orthogonalLoop=1;jettySize=auto;html=1;" parent="1" source="krXX1VKRWJ8w1nw-8fzc-3" target="krXX1VKRWJ8w1nw-8fzc-5" edge="1">
          <mxGeometry relative="1" as="geometry" />
        </mxCell>
        <mxCell id="krXX1VKRWJ8w1nw-8fzc-3" value="User" style="shape=image;verticalLabelPosition=bottom;labelBackgroundColor=default;verticalAlign=top;aspect=fixed;imageAspect=0;image=data:image/svg+xml,PHN2ZyB4bWxucz0iaHR0cDovL3d3dy53My5vcmcvMjAwMC9zdmciIHZpZXdCb3g9IjAgMCA0NDggNTEyIj48cGF0aCBkPSJtMjI0IDI1NmM3MC43IDAgMTI4LTU3LjMgMTI4LTEyOHMtNTcuMy0xMjgtMTI4LTEyOC0xMjggNTcuMy0xMjggMTI4IDU3LjMgMTI4IDEyOCAxMjh6bTg5LjYgMzJoLTE2LjdjLTIyLjIgMTAuMi00Ni45IDE2LTcyLjkgMTZzLTUwLjYtNS44LTcyLjktMTZoLTE2LjdjLTc0LjIgMC0xMzQuNCA2MC4yLTEzNC40IDEzNC40djQxLjZjMCAyNi41IDIxLjUgNDggNDggNDhoMzUyYzI2LjUgMCA0OC0yMS41IDQ4LTQ4di00MS42YzAtNzQuMi02MC4yLTEzNC40LTEzNC40LTEzNC40eiIvPjwvc3ZnPg==;" parent="1" vertex="1">
          <mxGeometry x="427.19" y="530" width="65.63" height="75" as="geometry" />
        </mxCell>
        <mxCell id="krXX1VKRWJ8w1nw-8fzc-25" style="edgeStyle=orthogonalEdgeStyle;rounded=0;orthogonalLoop=1;jettySize=auto;html=1;entryX=0.5;entryY=0;entryDx=0;entryDy=0;" parent="1" source="krXX1VKRWJ8w1nw-8fzc-4" target="krXX1VKRWJ8w1nw-8fzc-10" edge="1">
          <mxGeometry relative="1" as="geometry" />
        </mxCell>
        <mxCell id="krXX1VKRWJ8w1nw-8fzc-4" value="Administrator" style="shape=image;verticalLabelPosition=bottom;labelBackgroundColor=default;verticalAlign=top;aspect=fixed;imageAspect=0;image=data:image/svg+xml,PHN2ZyB4bWxucz0iaHR0cDovL3d3dy53My5vcmcvMjAwMC9zdmciIHZpZXdCb3g9IjAgMCA2NDAgNTEyIj48cGF0aCBkPSJtNjEwLjUgMzQxLjNjMi42LTE0LjEgMi42LTI4LjUgMC00Mi42bDI1LjgtMTQuOWMzLTEuNyA0LjMtNS4yIDMuMy04LjUtNi43LTIxLjYtMTguMi00MS4yLTMzLjItNTcuNC0yLjMtMi41LTYtMy4xLTktMS40bC0yNS44IDE0LjljLTEwLjktOS4zLTIzLjQtMTYuNS0zNi45LTIxLjN2LTI5LjhjMC0zLjQtMi40LTYuNC01LjctNy4xLTIyLjMtNS00NS00LjgtNjYuMiAwLTMuMy43LTUuNyAzLjctNS43IDcuMXYyOS44Yy0xMy41IDQuOC0yNiAxMi0zNi45IDIxLjNsLTI1LjgtMTQuOWMtMi45LTEuNy02LjctMS4xLTkgMS40LTE1IDE2LjItMjYuNSAzNS44LTMzLjIgNTcuNC0xIDMuMy40IDYuOCAzLjMgOC41bDI1LjggMTQuOWMtMi42IDE0LjEtMi42IDI4LjUgMCA0Mi42bC0yNS44IDE0LjljLTMgMS43LTQuMyA1LjItMy4zIDguNSA2LjcgMjEuNiAxOC4yIDQxLjEgMzMuMiA1Ny40IDIuMyAyLjUgNiAzLjEgOSAxLjRsMjUuOC0xNC45YzEwLjkgOS4zIDIzLjQgMTYuNSAzNi45IDIxLjN2MjkuOGMwIDMuNCAyLjQgNi40IDUuNyA3LjEgMjIuMyA1IDQ1IDQuOCA2Ni4yIDAgMy4zLS43IDUuNy0zLjcgNS43LTcuMXYtMjkuOGMxMy41LTQuOCAyNi0xMiAzNi45LTIxLjNsMjUuOCAxNC45YzIuOSAxLjcgNi43IDEuMSA5LTEuNCAxNS0xNi4yIDI2LjUtMzUuOCAzMy4yLTU3LjQgMS0zLjMtLjQtNi44LTMuMy04LjV6bS0xMTQuNSAyNy4yYy0yNi44IDAtNDguNS0yMS44LTQ4LjUtNDguNXMyMS44LTQ4LjUgNDguNS00OC41IDQ4LjUgMjEuOCA0OC41IDQ4LjUtMjEuNyA0OC41LTQ4LjUgNDguNXptLTQwMC0xNDQuNWMzNS4zIDAgNjQtMjguNyA2NC02NHMtMjguNy02NC02NC02NC02NCAyOC43LTY0IDY0IDI4LjcgNjQgNjQgNjR6bTIyNCAzMmMxLjkgMCAzLjctLjUgNS42LS42IDguMy0yMS43IDIwLjUtNDIuMSAzNi4zLTU5LjIgNy40LTggMTcuOS0xMi42IDI4LjktMTIuNiA2LjkgMCAxMy43IDEuOCAxOS42IDUuM2w3LjkgNC42Yy44LS41IDEuNi0uOSAyLjQtMS40IDctMTQuNiAxMS4yLTMwLjggMTEuMi00OCAwLTYxLjktNTAuMS0xMTItMTEyLTExMnMtMTExLjkgNTAtMTExLjkgMTExLjkgNTAuMSAxMTIgMTEyIDExMnptMTA1LjIgMTk0LjVjLTIuMy0xLjItNC42LTIuNi02LjgtMy45LTguMiA0LjgtMTUuMyA5LjgtMjcuNSA5LjgtMTAuOSAwLTIxLjQtNC42LTI4LjktMTIuNi0xOC4zLTE5LjgtMzIuMy00My45LTQwLjItNjkuNi0xMC43LTM0LjUgMjQuOS00OS43IDI1LjgtNTAuMy0uMS0yLjYtLjEtNS4yIDAtNy44bC03LjktNC42Yy0zLjgtMi4yLTctNS05LjgtOC4xLTMuMy4yLTYuNS42LTkuOC42LTI0LjYgMC00Ny42LTYtNjguNS0xNmgtOC4zYy02My43IDAtMTE1LjMgNTEuNi0xMTUuMyAxMTUuMnYyOC44YzAgMjYuNSAyMS41IDQ4IDQ4IDQ4aDI1NS40Yy0zLjctNi02LjItMTIuOC02LjItMjAuM3ptLTI1Mi4xLTE3NS45Yy0xMS42LTExLjUtMjcuNS0xOC42LTQ1LjEtMTguNmgtNjRjLTM1LjMgMC02NCAyOC43LTY0IDY0djMyYzAgMTcuNyAxNC4zIDMyIDMyIDMyaDY1LjljNi4zLTQ3LjQgMzQuOS04Ny4zIDc1LjItMTA5LjR6Ii8+PC9zdmc+;" parent="1" vertex="1">
          <mxGeometry x="120" y="298" width="100" height="80" as="geometry" />
        </mxCell>
        <mxCell id="krXX1VKRWJ8w1nw-8fzc-17" style="edgeStyle=orthogonalEdgeStyle;rounded=0;orthogonalLoop=1;jettySize=auto;html=1;entryX=1;entryY=0.5;entryDx=0;entryDy=0;strokeWidth=4;startArrow=classic;startFill=1;" parent="1" source="krXX1VKRWJ8w1nw-8fzc-5" target="krXX1VKRWJ8w1nw-8fzc-13" edge="1">
          <mxGeometry relative="1" as="geometry" />
        </mxCell>
        <mxCell id="krXX1VKRWJ8w1nw-8fzc-5" value="" style="shape=image;verticalLabelPosition=bottom;labelBackgroundColor=default;verticalAlign=top;aspect=fixed;imageAspect=0;image=data:image/svg+xml,PHN2ZyB4bWxuczp4bGluaz0iaHR0cDovL3d3dy53My5vcmcvMTk5OS94bGluayIgeG1sbnM9Imh0dHA6Ly93d3cudzMub3JnLzIwMDAvc3ZnIiB3aWR0aD0iMTQiIHZpZXdCb3g9IjAgMCAxNCAxNCIgaGVpZ2h0PSIxNCIgZmlsbD0ibm9uZSI+PGNsaXBQYXRoIGlkPSJhIj48cGF0aCBkPSJtMCAwaDE0djE0aC0xNHoiLz48L2NsaXBQYXRoPjxnIHN0cm9rZS1saW5lam9pbj0icm91bmQiIHN0cm9rZS1saW5lY2FwPSJyb3VuZCIgc3Ryb2tlPSIjMDAwIiBjbGlwLXBhdGg9InVybCgjYSkiPjxwYXRoIGQ9Im03LjUgMTMuNXYtNS4yNWMwLS4zMzE1Mi4xMzE2OS0uNjQ5NDYuMzY2MTEtLjg4Mzg4cy41NTIzNy0uMzY2MTIuODgzODktLjM2NjEyLjY0OTQ2LjEzMTcuODgzODguMzY2MTIuMzY2MTIuNTUyMzYuMzY2MTIuODgzODh2Mi43NWgxLjVjLjUzMDQgMCAxLjAzOTEuMjEwNyAxLjQxNDIuNTg1OHMuNTg1OC44ODM4LjU4NTggMS40MTQydi41Ii8+PHBhdGggZD0ibTEgMS41Yy4yNzYxNCAwIC41LS4yMjM4Ni41LS41IDAtLjI3NjE0Mi0uMjIzODYtLjUtLjUtLjUtLjI3NjE0MiAwLS41LjIyMzg1OC0uNS41IDAgLjI3NjE0LjIyMzg1OC41LjUuNXoiLz48cGF0aCBkPSJtNSAxLjVjLjI3NjE0IDAgLjUtLjIyMzg2LjUtLjUgMC0uMjc2MTQyLS4yMjM4Ni0uNS0uNS0uNXMtLjUuMjIzODU4LS41LjVjMCAuMjc2MTQuMjIzODYuNS41LjV6Ii8+PHBhdGggZD0ibTkgMS41Yy4yNzYxNCAwIC41LS4yMjM4Ni41LS41IDAtLjI3NjE0Mi0uMjIzODYtLjUtLjUtLjVzLS41LjIyMzg1OC0uNS41YzAgLjI3NjE0LjIyMzg2LjUuNS41eiIvPjxwYXRoIGQ9Im0xIDVjLjI3NjE0IDAgLjUtLjIyMzg2LjUtLjVzLS4yMjM4Ni0uNS0uNS0uNWMtLjI3NjE0MiAwLS41LjIyMzg2LS41LjVzLjIyMzg1OC41LjUuNXoiLz48cGF0aCBkPSJtNSA1Yy4yNzYxNCAwIC41LS4yMjM4Ni41LS41cy0uMjIzODYtLjUtLjUtLjUtLjUuMjIzODYtLjUuNS4yMjM4Ni41LjUuNXoiLz48cGF0aCBkPSJtNSA4LjVjLjI3NjE0IDAgLjUtLjIyMzg2LjUtLjVzLS4yMjM4Ni0uNS0uNS0uNS0uNS4yMjM4Ni0uNS41LjIyMzg2LjUuNS41eiIvPjxwYXRoIGQ9Im05IDVjLjI3NjE0IDAgLjUtLjIyMzg2LjUtLjVzLS4yMjM4Ni0uNS0uNS0uNS0uNS4yMjM4Ni0uNS41LjIyMzg2LjUuNS41eiIvPjxwYXRoIGQ9Im0xIDguNWMuMjc2MTQgMCAuNS0uMjIzODYuNS0uNXMtLjIyMzg2LS41LS41LS41Yy0uMjc2MTQyIDAtLjUuMjIzODYtLjUuNXMuMjIzODU4LjUuNS41eiIvPjwvZz48L3N2Zz4=;" parent="1" vertex="1">
          <mxGeometry x="580" y="340" width="100" height="100" as="geometry" />
        </mxCell>
        <mxCell id="krXX1VKRWJ8w1nw-8fzc-19" style="edgeStyle=orthogonalEdgeStyle;rounded=0;orthogonalLoop=1;jettySize=auto;html=1;entryX=0.5;entryY=0;entryDx=0;entryDy=0;" parent="1" source="krXX1VKRWJ8w1nw-8fzc-8" target="krXX1VKRWJ8w1nw-8fzc-4" edge="1">
          <mxGeometry relative="1" as="geometry" />
        </mxCell>
        <mxCell id="krXX1VKRWJ8w1nw-8fzc-20" value="&lt;b&gt;&lt;font style=&quot;font-size: 13px;&quot;&gt;18.10.2023 18:00 - 20:00 PIN: 1234&lt;/font&gt;&lt;/b&gt;" style="edgeLabel;html=1;align=center;verticalAlign=middle;resizable=0;points=[];" parent="krXX1VKRWJ8w1nw-8fzc-19" vertex="1" connectable="0">
          <mxGeometry x="0.1877" y="2" relative="1" as="geometry">
            <mxPoint x="103" y="-20" as="offset" />
          </mxGeometry>
        </mxCell>
        <mxCell id="krXX1VKRWJ8w1nw-8fzc-8" value="Webserver" style="shape=image;verticalLabelPosition=bottom;labelBackgroundColor=default;verticalAlign=top;aspect=fixed;imageAspect=0;image=data:image/svg+xml,PHN2ZyB4bWxucz0iaHR0cDovL3d3dy53My5vcmcvMjAwMC9zdmciIHdpZHRoPSIxNDkiIHZpZXdCb3g9IjAgMCAxNDkgMTQ3IiBoZWlnaHQ9IjE0NyIgZmlsbD0ibm9uZSI+PHBhdGggZmlsbD0iYmxhY2siIGQ9Ik0xOS42ODAyIDU0LjIzMzZDMTkuNjgwMiA1MS42OTU2IDE5LjU3NzggNDkuODM2MiAxOS43MDkxIDQ3Ljk5ODRDMTkuODM1NyA0Ni4yMjYzIDE4Ljk2OTQgNDUuNzcwMiAxNy40MTE5IDQ1LjYwMjFDMTQuMjU1NiA0NS4zNDU4IDExLjExNzQgNDQuOTAyIDguMDEzOCA0NC4yNzNDMy40Mzg0NyA0My4yMTMxIDEuMDQ2MSA0MC42MzE3IDEuMDA2NzIgMzYuMDAzMkMwLjkzNTE3OSAyNy42MDIxIDEuMzAxNDEgMTkuMTk1IDEuNTYwNjcgMTAuNzkyNkMxLjYzMjg2IDguNDM3NjUgMi43NzM1NiA2LjQ0NTA1IDQuOTU5MTcgNS41Njc1MkM3Ljg1NDI3IDQuNDA1MTUgMTAuODczNCAyLjk0MjE4IDEzLjg5NDYgMi44MDE3MkMzNi43MTY3IDEuNzQxMDggNTkuNTQ2OCAwLjc2NzAyMyA4Mi4zODU0IDAuMTg4NzlDOTcuMDIxNyAtMC4xODEzODUgMTExLjY4IDAuMDc2NjE5OSAxMjYuMzI3IDAuMjU0NDg3QzEzMC4zNyAwLjM0ODE2NiAxMzQuMzk4IDAuNzkwNTc4IDEzOC4zNjYgMS41NzY5NEMxNDMuODQ0IDIuNjA0NzYgMTQ2LjA5MSA1LjA5MDMyIDE0Ni44MzcgMTAuNTU3QzE0Ny44NzYgMTguMTYzMyAxNDguMzA2IDI1LjgwNyAxNDYuOTM4IDMzLjQxOTJDMTQ1LjYyMiA0MC43NDc4IDE0Mi4wMDYgNDQuMDA4NSAxMzQuNTg4IDQ0LjczMzhDMTMyLjMwNiA0NC45NTcgMTMwLjAwNSA0NC45NzM0IDEyNy43MTIgNDUuMDg0M0MxMjQuNDUyIDQ1LjI0MjUgMTI0LjM1OCA0NS4zNzE4IDEyNS4wMDUgNDkuMTI4N0MxMjYuMDA2IDQ5LjIxMDcgMTI3LjA3MiA0OS4zMDk4IDEyOC4xMzkgNDkuMzgyNkMxMzAuNDI5IDQ5LjUzODkgMTMyLjcyOSA0OS42MDA2IDEzNS4wMSA0OS44NDIxQzE0NC4xNTQgNTAuODE2MSAxNDYuNzQ1IDUzLjEwMjggMTQ3LjU1NCA2Mi4xOTgzQzE0OC4xNjUgNjguNDk5NSAxNDguMjYgNzQuODQwMSAxNDcuODM2IDgxLjE1NjZDMTQ3LjIxOSA4OS4yOTg1IDE0My4zODEgOTIuNzg3NiAxMzUuMzE0IDkzLjY3MUMxMzEuMDg5IDk0LjEzNDQgMTI2LjgzNyA5NC4zNTEgMTIyLjMxOSA5NC43MDA4QzEyMi40MjMgOTYuNjY1MiAxMjIuNTE2IDk4LjQ1OTcgMTIyLjYzIDEwMC41OTNDMTIzLjc0NiAxMDAuNzAzIDEyNC43OTYgMTAwLjc5IDEyNS44NDYgMTAwLjkxMUMxMzAuMDc1IDEwMS40MSAxMzQuMzM5IDEwMS43MjEgMTM4LjUyMSAxMDIuNDg2QzE0Mi41MDkgMTAzLjIxNCAxNDUuMjcyIDEwNS42NjYgMTQ1Ljk0OSAxMDkuODIyQzE0Ny4yOTMgMTE4LjA2MiAxNDcuNzY4IDEyNi4zNTIgMTQ2LjIxOSAxMzQuNjE3QzE0NC45MjcgMTQxLjUxOSAxNDEuMjI3IDE0NS4wMDEgMTM0LjE0NiAxNDUuMzgxQzEyNS4wODkgMTQ1Ljg2NyAxMTYuMDE0IDE0NS45NjEgMTA2Ljk0NCAxNDYuMDc4QzgyLjAyMTEgMTQ2LjM5OCA1Ny4wOTY3IDE0Ni43MTggMzIuMTcyMyAxNDYuODY1QzI1LjczMzYgMTQ2LjkwMyAxOS4yODkgMTQ2LjM0IDEyLjg1MSAxNDUuOTgyQzExLjMyNDMgMTQ1Ljg3MiA5LjgwOTUxIDE0NS42MzQgOC4zMjIyNiAxNDUuMjcyQzIuNzM2MTcgMTQ0LjAxIDAuMzQ1ODE3IDE0MS41MTEgMC4yOTc5MDQgMTM1Ljc0NUMwLjIzMjI3IDEyNy43NzggMC42MzQ2MjEgMTE5LjgwNiAwLjg4ODYyNCAxMTEuODM5QzAuOTcyNjM1IDEwOS4yMiAyLjE4NDg2IDEwNy4wNjQgNC42Mjk3MiAxMDYuMTI5QzguMjMzNjcgMTA0Ljc0NSAxMS45NzQ4IDEwMy43MTggMTYuMzM5NSAxMDIuMzIyQzE2LjQ4MzIgMTAxLjI4NSAxNi43NDMxIDk5LjQwODEgMTcuMDMzOSA5Ny4zMDM5QzE0LjM5MTUgOTYuODk1IDEyLjAyNTQgOTYuNjMwNSA5LjcwNTIgOTYuMTQ4MUM0LjQ3NjgxIDk1LjA2MTIgMS45Nzk0MiA5Mi41MDY3IDEuODMzNzEgODcuMTg0NEMxLjYxMzE4IDc5LjExMTUgMS43OTk1OCA3MS4wMjQxIDEuODc4MzQgNjIuOTQzM0MxLjkwMzk0IDYwLjMzMSAzLjA3NDg4IDU4LjE0MjggNS41MTM4MyA1Ny4xNjc0QzguNTI4OTQgNTUuOTk4IDExLjYyMSA1NS4wMzc3IDE0Ljc2ODIgNTQuMjkzNEMxNi4xODEzIDUzLjk0NDkgMTcuNzUyNiA1NC4yMzM2IDE5LjY4MDIgNTQuMjMzNlpNNzQuNjExMSA4Ny40MjRDNzQuNjExMSA4Ny4yNzU2IDc0LjYxMTEgODcuMTI2NyA3NC42MTExIDg2Ljk3ODNDNzguMzIyIDg2Ljk3ODMgODIuMDM1NiA4Ny4wNjgyIDg1Ljc0MzkgODYuOTYyNkMxMDEuMzU5IDg2LjUxODQgMTE2Ljk3NCA4Ni4wMzcyIDEzMi41ODYgODUuNTE4NkMxMzcuMzM5IDg1LjM1OTIgMTM4LjUxOCA4NC40Mzc3IDEzOC42ODMgNzkuNzE2QzEzOC44OTMgNzMuNzMzNSAxMzguNTkxIDY3LjczMTkgMTM4LjQ4NyA2MS43Mzk1QzEzOC40NSA1OS42OTI0IDEzNy41MjIgNTguNTE0OSAxMzUuMzE0IDU4LjQyNTZDMTMzLjI0NSA1OC4zNDIzIDEzMS4xODcgNTcuOTYwMyAxMjkuMTE4IDU3Ljg4MzZDMTAzLjIwMiA1Ni45MTk0IDc3LjM1NDYgNTguMzU1NCA1MS41MTI2IDYwLjA3NjNDMzcuNzg0NiA2MC45OTA4IDI0LjA1MDQgNjEuODEwNCAxMC4zMDk3IDYyLjUzNUM4LjExOTUgNjIuNjUzOCA3Ljc5MzMxIDYzLjc2OTYgNy45MDI5MSA2NS41MDU2QzguMzI3NTYgNzIuMjY1OSA4Ljc2OTIyIDc5LjAxODMgOS4xNDk4OSA4NS43NzczQzkuMjgxMTYgODguMTE3MSAxMC41Nzg4IDg5LjA1OSAxMi43NTEzIDg5LjA4MjZDMjIuNDY1MSA4OS4xODc2IDMyLjE4NzQgODkuNTc2OCA0MS44OTI3IDg5LjMwMDRDNTIuODA3NiA4OC45ODYxIDYzLjcwNTQgODguMDc1MSA3NC42MTExIDg3LjQyNFpNNjkuODYxMiAxMDguNjU3TDY5Ljg0NzQgMTA5LjA5MkM2Mi40MzA4IDEwOS40ODUgNTUuMDE0MSAxMDkuOTQ1IDQ3LjU4OTYgMTEwLjI1M0MzNC45MzAyIDExMC43NzggMjIuMjY3OSAxMTEuMjM4IDkuNjAyODEgMTExLjYzMkM3LjMyNzI4IDExMS42OTcgNi43OTY5OCAxMTIuNzU3IDYuODc3NzEgMTE0LjY5NUM3LjE0MDI0IDEyMS4wMjUgNy4zNTAyMSAxMjcuMzU2IDcuNjIxOTQgMTMzLjY4NUM3Ljc4NDA1IDEzNy40NjcgOC4xMDE3MSAxMzguMDcgMTIuMDQ1NiAxMzguMjZDMjEuNDIyNyAxMzguNzE0IDMwLjgxNjkgMTM5LjE4NyA0MC4yMDI2IDEzOS4wNjNDNTguODgzMiAxMzguODE1IDc3LjU1NzQgMTM4LjExNiA5Ni4yMzYxIDEzNy43MTFDMTA3LjkyNSAxMzcuNDU3IDExOS42MiAxMzcuNDQzIDEzMS4zMSAxMzcuMjMzQzEzNS42OSAxMzcuMTU1IDEzNi45NzQgMTM2LjIwMSAxMzcuMjI3IDEzMS45NDVDMTM3LjU4NyAxMjUuODYgMTM3LjQ0NiAxMTkuNzQ0IDEzNy40ODYgMTEzLjY0MUMxMzcuNSAxMTEuNTkgMTM2LjU0MiAxMTAuMzk4IDEzNC4zNzMgMTEwLjIyNEMxMzEuOTc5IDExMC4wMzIgMTI5LjYgMTA5LjUwNyAxMjcuMjA4IDEwOS40NjdDMTA4LjA5MiAxMDkuMTQ5IDg4Ljk3NjMgMTA4LjkxNSA2OS44NjA1IDEwOC42NTdINjkuODYxMlpNNjkuOTA4NCA3Ljg5NDkxTDY5Ljg5NjYgOC40MDQyM0M2My41Njc2IDguNzE5OTMgNTcuMjM5OCA5LjA3OTU3IDUwLjkwODEgOS4zNDIxMUMzNy40ODI3IDkuODk5MzQgMjQuMDU3NCAxMC40NjI1IDEwLjYyNzQgMTAuODc3M0M4LjM3ODc2IDEwLjk0NjggNy4zOTYyIDExLjU2OTEgNy41MDA1NSAxMy44NjA0QzcuNzgyNzggMjAuMDc5MiA3Ljk4MTAxIDI2LjMwMjUgOC4yMzgyOSAzMi41MjI2QzguNDE0ODUgMzYuODA1MiA4LjY2NTU1IDM3LjM1OTkgMTIuOTA4OCAzNy41NjRDMjIuMTc5NSAzOC4wMTEgMzEuNDY5NCAzOC40NTA3IDQwLjc0MzQgMzguMzI0NkM1OC44Nzk0IDM4LjA3NzkgNzcuMDA4IDM3LjM4MjggOTUuMTQyIDM2Ljk4NzdDMTA3LjM3OCAzNi43MjA2IDExOS42MTkgMzYuNjgxOSAxMzEuODU2IDM2LjQ3NDVDMTM2LjM5NSAzNi4zOTc3IDEzNy41ODcgMzUuNTA3NyAxMzcuODg1IDMwLjk1NEMxMzguMjYxIDI1LjE5NTkgMTM4LjI0NCAxOS40MDI0IDEzOC4xNCAxMy42MjY3QzEzOC4wNzQgMTAuMTMzIDEzNy42ODYgOS45MjA5NiAxMzQuMTAxIDkuMzY0MzhDMTMyLjM4IDkuMDU2ODUgMTMwLjY0IDguODY3MTcgMTI4Ljg5MyA4Ljc5NjY1QzEwOS4yMzIgOC40Njk4IDg5LjU3MSA4LjE2OTI2IDY5LjkwODQgNy44OTQ5MVpNMTEzLjAxMyA5NC41ODc5TDI1LjIyMyA5Ny42MTVDMjUuNTM2NyA5OS41NDU5IDI1LjgwNzEgMTAxLjIxMiAyNi4wODYxIDEwMi45MjdMMTEyLjY4NSA5OS45OTU1QzExMi43NzMgOTguNTQ0MyAxMTIuODcgOTYuOTM4MyAxMTMuMDEzIDk0LjU4NzlaTTI4LjY0MzggNTMuMzY1OUwxMTQuNDM0IDQ4LjYzNThDMTE0LjU4MyA0OC4yMjMgMTE0LjY5IDQ3Ljc5NjEgMTE0Ljc1NCA0Ny4zNjE4QzExNC43NDEgNDYuNjIxOCAxMTQuNjc3IDQ1Ljg4MzYgMTE0LjU2MSA0NS4xNTI2TDI3LjY2MiA0Ni4yMjE3QzI3Ljg5ODkgNDguNTg0NSAyOC4wNzM1IDUwLjQyMjMgMjguMjc4MiA1Mi4yNjAxQzI4LjM2NTQgNTIuNjM5MSAyOC40ODc0IDUzLjAwOTMgMjguNjQyNSA1My4zNjU5SDI4LjY0MzhaIi8+PHBhdGggZmlsbD0iYmxhY2siIGQ9Ik00Ny4zMzQ1IDc2Ljk4NDdDNDEuMTg4NiA3Ny4yNzQ4IDMzLjIyNjUgNzcuNjY1MyAyNS4yNjE5IDc4LjAxNDVDMjMuODQ5NCA3OC4wNzYyIDIyLjI4MDEgNzguMzI4OSAyMS4wNTY3IDc3LjgyODFDMTkuOTU0IDc3LjM3NTkgMTguNjg1MyA3Ni4xMDEzIDE4LjUwNTUgNzUuMDIwM0MxOC4zNjM3IDc0LjE2NzEgMTkuNTc3OSA3Mi41MjIzIDIwLjUzMDMgNzIuMTgyOUMyMi41OTg3IDcxLjQ4NjkgMjQuNzU5OCA3MS4xMDUxIDI2Ljk0MTQgNzEuMDUwMUM0Mi43NjQ5IDcwLjQzMTkgNTguNTkwOSA2OS44NzYzIDc0LjQxOTYgNjkuMzgzN0M3NS45NDc1IDY5LjM1MzEgNzcuNDc1MSA2OS40NTU5IDc4Ljk4NTEgNjkuNjkwOEM4MC43NjkgNjkuOTQ4MSA4Mi4xMjUgNzAuOTM3OSA4Mi4yMDUxIDcyLjg0NTlDODIuMjg1MiA3NC43NTM4IDgwLjk2NjUgNzUuOTMwNiA3OS4yNDQzIDc2LjI1NDJDNzYuOTk2IDc2LjY4NjIgNzQuNzE0MiA3Ni45MiA3Mi40MjUgNzYuOTUzMkM2NC42Njk3IDc3LjAzNTIgNTYuOTEzOCA3Ni45ODQ3IDQ3LjMzNDUgNzYuOTg0N1oiLz48cGF0aCBmaWxsPSJibGFjayIgZD0iTTEyOC44MzYgNzUuODI3M0MxMjcuNzM2IDc1LjgwMDkgMTI2LjY5MSA3NS4zNDQ0IDEyNS45MjUgNzQuNTU2QzEyNS4xNTggNzMuNzY3NSAxMjQuNzMyIDcyLjcwOTkgMTI0LjczNiA3MS42MTAzQzEyNC44MjkgNjkuMDk4NSAxMjYuNTM2IDY3LjIzNzIgMTI4LjcxIDY3LjI3ODVDMTI5Ljg1OCA2Ny4zNDI3IDEzMC45NDEgNjcuODM1OCAxMzEuNzQzIDY4LjY2MDNDMTMyLjU0NSA2OS40ODQ4IDEzMy4wMDkgNzAuNTgwNiAxMzMuMDQxIDcxLjczMDVDMTMzLjAyNCA3Mi44MzA2IDEzMi41NzIgNzMuODc5MSAxMzEuNzg0IDc0LjY0NjhDMTMwLjk5NiA3NS40MTQ1IDEyOS45MzYgNzUuODM4OSAxMjguODM2IDc1LjgyNzNaIi8+PHBhdGggZmlsbD0iYmxhY2siIGQ9Ik0xMTQuODIzIDc2LjI3MUMxMTMuNzIyIDc2LjI2NzkgMTEyLjY2NiA3NS44MzM5IDExMS44ODEgNzUuMDYxOEMxMTEuMDk1IDc0LjI4OTcgMTEwLjY0NCA3My4yNDA5IDExMC42MjIgNzIuMTM5OUMxMTAuNTk5IDY5LjgyNTcgMTEyLjA3NSA2OC40OTUzIDExNC42NDcgNjguNTEyNEMxMTcuMzA0IDY4LjUyOTQgMTE4Ljk3MiA3MC4wNTA4IDExOC44ODggNzIuMzg0OEMxMTguODM3IDczLjQyOTcgMTE4LjM4NiA3NC40MTUgMTE3LjYzIDc1LjEzNzlDMTE2Ljg3NCA3NS44NjA4IDExNS44NjkgNzYuMjY2NCAxMTQuODIzIDc2LjI3MVoiLz48cGF0aCBmaWxsPSJibGFjayIgZD0iTTk4LjI5NTEgNjkuMDY2OUM5OS4yNzYxIDY5LjEwMTUgMTAwLjIxMSA2OS40OTI5IDEwMC45MjQgNzAuMTY3NkMxMDEuNjM3IDcwLjg0MjIgMTAyLjA3OSA3MS43NTM3IDEwMi4xNjggNzIuNzMxMkMxMDIuMTczIDczLjIyMSAxMDIuMDc2IDczLjcwNjQgMTAxLjg4MyA3NC4xNTY2QzEwMS42OSA3NC42MDY3IDEwMS40MDUgNzUuMDExNyAxMDEuMDQ3IDc1LjM0NThDMTAwLjY4OSA3NS42Nzk4IDEwMC4yNjUgNzUuOTM1NiA5OS44MDI1IDc2LjA5NjZDOTkuMzQgNzYuMjU3NyA5OC44NDkgNzYuMzIwNiA5OC4zNjA4IDc2LjI4MTRDOTcuNDI5MiA3Ni4yMzQ2IDk2LjU1MSA3NS44MzIgOTUuOTA3NyA3NS4xNTY2Qzk1LjI2NDMgNzQuNDgxMiA5NC45MDQ3IDczLjU4NDYgOTQuOTAzMiA3Mi42NTE4Qzk0Ljg3ODIgNzIuMTkwNyA5NC45NDczIDcxLjcyOTMgOTUuMTA2NCA3MS4yOTU4Qzk1LjI2NTUgNzAuODYyMyA5NS41MTEyIDcwLjQ2NTggOTUuODI4NiA3MC4xMzAzQzk2LjE0NiA2OS43OTQ5IDk2LjUyODQgNjkuNTI3NiA5Ni45NTI1IDY5LjM0NDdDOTcuMzc2NSA2OS4xNjE5IDk3LjgzMzMgNjkuMDY3NCA5OC4yOTUxIDY5LjA2NjlaIi8+PHBhdGggZmlsbD0iYmxhY2siIGQ9Ik00OC4xODQyIDEyNy40NTVDNDAuMjIwNyAxMjcuNDU1IDMyLjI1ODUgMTI3LjQ1NSAyNC4yOTc1IDEyNy40NTVDMjIuOTg4OSAxMjcuNDk3IDIxLjY3ODkgMTI3LjQ2OCAyMC4zNzMzIDEyNy4zNzFDMTguNTgwOCAxMjcuMTc4IDE3LjIwNTcgMTI2LjMwOCAxNy4xMjQzIDEyNC4zMjdDMTcuMDQ4OSAxMjIuNDkzIDE4LjI5NjYgMTIxLjUxNyAxOS45MDU5IDEyMS4xOTNDMjEuODI0NiAxMjAuNzY4IDIzLjc3ODIgMTIwLjUyMSAyNS43NDIxIDEyMC40NTRDNDEuNzgwOCAxMjAuMjEyIDU3LjgyMDQgMTIwLjAyIDczLjg2MDggMTE5Ljg3OUM3NS4yNjggMTE5Ljg2NSA3Ni44NTcgMTE5LjggNzguMDM1MSAxMjAuMzk5Qzc5LjIyMzEgMTIxLjAwMyA4MC43MzY2IDEyMi4zOSA4MC43NTg5IDEyMy40NjJDODAuNzgxOSAxMjQuNTQ2IDc5LjM1MTcgMTI2LjAxOCA3OC4xOTI2IDEyNi42NzJDNzcuMDQ5MyAxMjcuMzE2IDc1LjQ0OTIgMTI3LjMwMSA3NC4wNDc5IDEyNy4zMUM2NS40MjY5IDEyNy4zNiA1Ni44MDU5IDEyNy4zMzUgNDguMTg4MSAxMjcuMzM1TDQ4LjE4NDIgMTI3LjQ1NVoiLz48cGF0aCBmaWxsPSJibGFjayIgZD0iTTEyNy4zMjggMTE4Ljk2N0MxMjguNDg3IDExOC45NzggMTI5LjU5NyAxMTkuNDM1IDEzMC40MjggMTIwLjI0M0MxMzEuMjU5IDEyMS4wNTEgMTMxLjc0NyAxMjIuMTQ4IDEzMS43OTEgMTIzLjMwNkMxMzEuNzkzIDEyNC4zNTYgMTMxLjM5NyAxMjUuMzY5IDEzMC42ODQgMTI2LjE0MUMxMjkuOTcxIDEyNi45MTMgMTI4Ljk5MyAxMjcuMzg3IDEyNy45NDYgMTI3LjQ2OEMxMjYuODQxIDEyNy41MjUgMTI1Ljc1OCAxMjcuMTQxIDEyNC45MzYgMTI2LjRDMTI0LjExNSAxMjUuNjU5IDEyMy42MiAxMjQuNjIzIDEyMy41NjIgMTIzLjUxOEMxMjMuNDg3IDEyMS4wNzIgMTI1LjE4MSAxMTkuMDI4IDEyNy4zMjggMTE4Ljk2N1oiLz48cGF0aCBmaWxsPSJibGFjayIgZD0iTTEwOS40MDYgMTIzLjQ5N0MxMDkuMzc0IDEyMS4yMDkgMTEwLjkwNiAxMTkuNzk0IDExMy4zODYgMTE5LjgyMUMxMTYuMDExIDExOS44NTMgMTE3LjY5NCAxMjEuMzkgMTE3LjYyNiAxMjMuNzA1QzExNy41ODMgMTI0Ljc0NSAxMTcuMTQxIDEyNS43MjkgMTE2LjM5MiAxMjYuNDUzQzExNS42NDMgMTI3LjE3NyAxMTQuNjQ0IDEyNy41ODQgMTEzLjYwMyAxMjcuNTkyQzExMi41MDcgMTI3LjU5MyAxMTEuNDU0IDEyNy4xNjUgMTEwLjY2OSAxMjYuNEMxMDkuODg1IDEyNS42MzQgMTA5LjQzMiAxMjQuNTkyIDEwOS40MDYgMTIzLjQ5N1oiLz48cGF0aCBmaWxsPSJibGFjayIgZD0iTTk3LjM4NDYgMTI3LjIyNEM5Ni44OTgyIDEyNy4yNCA5Ni40MTM3IDEyNy4xNTcgOTUuOTYwNSAxMjYuOTc5Qzk1LjUwNzMgMTI2LjgwMiA5NS4wOTQ4IDEyNi41MzQgOTQuNzQ4IDEyNi4xOTNDOTQuNDAxMyAxMjUuODUxIDk0LjEyNzUgMTI1LjQ0MyA5My45NDMzIDEyNC45OTNDOTMuNzU5MSAxMjQuNTQyIDkzLjY2ODIgMTI0LjA1OSA5My42NzYzIDEyMy41NzNDOTMuNjY1MyAxMjMuMTE0IDkzLjc0NTcgMTIyLjY1NyA5My45MTI4IDEyMi4yM0M5NC4wNzk5IDEyMS44MDIgOTQuMzMwNCAxMjEuNDEyIDk0LjY0OTcgMTIxLjA4MkM5NC45Njg5IDEyMC43NTIgOTUuMzUwNiAxMjAuNDg5IDk1Ljc3MjQgMTIwLjMwOEM5Ni4xOTQzIDEyMC4xMjcgOTYuNjQ3OSAxMjAuMDMyIDk3LjEwNyAxMjAuMDI4Qzk4LjA4MDUgMTIwLjA5NCA5OC45OTgxIDEyMC41MDggOTkuNjkyOCAxMjEuMTkzQzEwMC4zODggMTIxLjg3OCAxMDAuODE0IDEyMi43OSAxMDAuODkzIDEyMy43NjJDMTAwLjg5NyAxMjQuMjIyIDEwMC44MDggMTI0LjY3OCAxMDAuNjMzIDEyNS4xMDJDMTAwLjQ1NyAxMjUuNTI3IDEwMC4xOTggMTI1LjkxMiA5OS44NzEgMTI2LjIzNUM5OS41NDM4IDEyNi41NTggOTkuMTU1MiAxMjYuODEyIDk4LjcyODEgMTI2Ljk4MkM5OC4zMDEgMTI3LjE1MiA5Ny44NDQyIDEyNy4yMzQgOTcuMzg0NiAxMjcuMjI0WiIvPjxwYXRoIGZpbGw9ImJsYWNrIiBkPSJNNDkuMDM4OSAyNi42NjY5SDI1LjQ3NjNDMjQuMTYzNyAyNi42NjY5IDIyLjg1NTYgMjYuNzE3NCAyMS41NDgyIDI2LjY2NjlDMTkuNjQwMiAyNi41OTMzIDE3Ljk3OTcgMjUuOTMyNCAxNy43NzU2IDIzLjgwMjZDMTcuNTQ4NSAyMS40MjYgMTkuMzE2NyAyMC41ODY1IDIxLjI2MzMgMjAuMjU4M0MyMy4xOTc3IDE5LjkxMTggMjUuMTU1NCAxOS43MTExIDI3LjExOTggMTkuNjU3OUM0Mi4xNzY3IDE5LjQyMzggNTcuMjM0NiAxOS4yMzE2IDcyLjI5MzYgMTkuMDgxNkM3NC4zNTg1IDE5LjA2MTIgNzYuNTIzNyAxOS4wMjcxIDc4LjQ1NzMgMTkuNjEyNUM3OS4xMzQzIDE5Ljg1NzUgNzkuNzUxNCAyMC4yNDM5IDgwLjI2NzMgMjAuNzQ2QzgwLjc4MzMgMjEuMjQ4MiA4MS4xODYzIDIxLjg1NDUgODEuNDQ5NSAyMi41MjQ3QzgxLjk3NDYgMjQuMzI2MyA4MC40OTEzIDI1LjU2MzUgNzguNzY1MSAyNi4wMTUxQzc3LjM5NjQgMjYuMzcxOCA3NS45ODg4IDI2LjU1NzYgNzQuNTc0NCAyNi41Njg0QzY2LjA2MjMgMjYuNjE3NiA1Ny41NTAzIDI2LjU5MzMgNDkuMDM4OSAyNi41OTMzVjI2LjY2NjlaIi8+PHBhdGggZmlsbD0iYmxhY2siIGQ9Ik0xMjguNDUgMjYuNzAyOEMxMjcuOTAyIDI2LjcyMzYgMTI3LjM1NSAyNi42MzQyIDEyNi44NDEgMjYuNDQwM0MxMjYuMzI4IDI2LjI0NjQgMTI1Ljg1OSAyNS45NTE3IDEyNS40NjEgMjUuNTczNkMxMjUuMDY0IDI1LjE5NTQgMTI0Ljc0NiAyNC43NDE1IDEyNC41MjYgMjQuMjM4NkMxMjQuMzA3IDIzLjczNTcgMTI0LjE5IDIzLjE5NCAxMjQuMTg0IDIyLjY0NTRDMTI0LjE3OCAyMC4xODIxIDEyNS45MjIgMTguMTg4MSAxMjguMDcyIDE4LjE5NzNDMTI5LjE3MyAxOC4yNTMyIDEzMC4yMTcgMTguNzA0IDEzMS4wMTMgMTkuNDY3QzEzMS44MDggMjAuMjMwMSAxMzIuMzAyIDIxLjI1NDMgMTMyLjQwNCAyMi4zNTJDMTMyLjQzOCAyMi44OTkgMTMyLjM2MSAyMy40NDcyIDEzMi4xNzkgMjMuOTY0MUMxMzEuOTk3IDI0LjQ4MTEgMTMxLjcxNCAyNC45NTY0IDEzMS4zNDUgMjUuMzYyQzEzMC45NzcgMjUuNzY3NSAxMzAuNTMgMjYuMDk1MSAxMzAuMDMzIDI2LjMyNTRDMTI5LjUzNiAyNi41NTU3IDEyOC45OTggMjYuNjg0MSAxMjguNDUgMjYuNzAyOFoiLz48cGF0aCBmaWxsPSJibGFjayIgZD0iTTExNC4yOSAyNi44MjM1QzExMy43NDggMjYuODM5NyAxMTMuMjA4IDI2Ljc0ODkgMTEyLjcgMjYuNTU2MkMxMTIuMTkzIDI2LjM2MzYgMTExLjcyOSAyNi4wNzMgMTExLjMzNCAyNS43MDA5QzExMC45MzkgMjUuMzI4OCAxMTAuNjIxIDI0Ljg4MjUgMTEwLjM5OSAyNC4zODc2QzExMC4xNzcgMjMuODkyNyAxMTAuMDU0IDIzLjM1ODkgMTEwLjAzOCAyMi44MTY2QzEwOS45NzMgMjAuNDk3MSAxMTEuNDU3IDE5LjA3OTQgMTEzLjk0NiAxOS4wODk5QzExNi41ODkgMTkuMTAxMSAxMTguMjgxIDIwLjU5OTUgMTE4LjI1MiAyMi45MDI1QzExOC4yMzMgMjMuOTQzNCAxMTcuODA3IDI0LjkzNTQgMTE3LjA2NyAyNS42Njc3QzExNi4zMjcgMjYuNCAxMTUuMzMxIDI2LjgxNDYgMTE0LjI5IDI2LjgyMzVaIi8+PHBhdGggZmlsbD0iYmxhY2siIGQ9Ik05Ny42NTMxIDI2LjQ5NTZDOTcuMTY2NiAyNi40NjQ0IDk2LjY5MTcgMjYuMzM0IDk2LjI1NzYgMjYuMTEyMkM5NS44MjM1IDI1Ljg5MDUgOTUuNDM5MyAyNS41ODIyIDk1LjEyODkgMjUuMjA2M0M5NC44MTg1IDI0LjgzMDUgOTQuNTg4MyAyNC4zOTUxIDk0LjQ1MjYgMjMuOTI2OUM5NC4zMTY5IDIzLjQ1ODcgOTQuMjc4NiAyMi45Njc2IDk0LjMzOTkgMjIuNDg0Qzk0LjYxNjIgMjAuNTUzNyA5NS42ODQ3IDE5LjI5NjkgOTcuNzc0NSAxOS4zMjk3Qzk4LjgwODMgMTkuMzc1MyA5OS43ODE5IDE5LjgyODYgMTAwLjQ4MiAyMC41OTA2QzEwMS4xODIgMjEuMzUyNyAxMDEuNTUyIDIyLjM2MTEgMTAxLjUxIDIzLjM5NTFDMTAxLjQwOCAyNC4zMTcyIDEwMC45NDYgMjUuMTYxNSAxMDAuMjIzIDI1Ljc0MjhDOTkuNDk5NSAyNi4zMjQxIDk4LjU3NTUgMjYuNTk0OCA5Ny42NTMxIDI2LjQ5NTZaIi8+PC9zdmc+;" parent="1" vertex="1">
          <mxGeometry x="414" y="110" width="78.05" height="77" as="geometry" />
        </mxCell>
        <mxCell id="krXX1VKRWJ8w1nw-8fzc-9" value="" style="shape=image;verticalLabelPosition=bottom;labelBackgroundColor=default;verticalAlign=top;aspect=fixed;imageAspect=0;image=data:image/svg+xml,PHN2ZyB4bWxucz0iaHR0cDovL3d3dy53My5vcmcvMjAwMC9zdmciIHZpZXdCb3g9IjAgMCA0OCA0OCI+PHRpdGxlLz48ZyBpZD0iXzI2LVNtYXJ0cGhvbmUiIGRhdGEtbmFtZT0iMjYtU21hcnRwaG9uZSI+PHBhdGggZD0iTTM1LDBIMTNBNSw1LDAsMCwwLDgsNVY0M2E1LDUsMCwwLDAsNSw1SDM1YTUsNSwwLDAsMCw1LTVWNUE1LDUsMCwwLDAsMzUsMFptMyw0M2EzLDMsMCwwLDEtMywzSDEzYTMsMywwLDAsMS0zLTNWNDBIMzhabTAtNUgxMFY5SDM4Wk0zOCw3SDEwVjVhMywzLDAsMCwxLDMtM0gzNWEzLDMsMCwwLDEsMywzWiIvPjxyZWN0IHk9IjQyIiB4PSIyMyIgd2lkdGg9IjIiIGhlaWdodD0iMiIvPjwvZz48L3N2Zz4=;" parent="1" vertex="1">
          <mxGeometry x="210" y="360" width="48" height="48" as="geometry" />
        </mxCell>
        <mxCell id="krXX1VKRWJ8w1nw-8fzc-24" style="edgeStyle=orthogonalEdgeStyle;rounded=0;orthogonalLoop=1;jettySize=auto;html=1;" parent="1" source="krXX1VKRWJ8w1nw-8fzc-10" target="krXX1VKRWJ8w1nw-8fzc-3" edge="1">
          <mxGeometry relative="1" as="geometry" />
        </mxCell>
        <mxCell id="krXX1VKRWJ8w1nw-8fzc-10" value="" style="shape=image;verticalLabelPosition=bottom;labelBackgroundColor=default;verticalAlign=top;aspect=fixed;imageAspect=0;image=data:image/svg+xml,PHN2ZyB4bWxuczp4bGluaz0iaHR0cDovL3d3dy53My5vcmcvMTk5OS94bGluayIgeG1sbnM9Imh0dHA6Ly93d3cudzMub3JnLzIwMDAvc3ZnIiB4bWw6c3BhY2U9InByZXNlcnZlIiB3aWR0aD0iMTAwJSIgdmlld0JveD0iMCAwIDUxMiA1MTIiIHZlcnNpb249IjEuMSIgc3R5bGU9ImZpbGwtcnVsZTpldmVub2RkO2NsaXAtcnVsZTpldmVub2RkO3N0cm9rZS1saW5lam9pbjpyb3VuZDtzdHJva2UtbWl0ZXJsaW1pdDoyOyIgaGVpZ2h0PSIxMDAlIj48cGF0aCBpZD0iV2hhdHNBcHAtTG9nbyIgZD0iTTM3My4yOTUsMzA3LjA2NGMtNi4zNywtMy4xODggLTM3LjY4NywtMTguNTk2IC00My41MjYsLTIwLjcyNGMtNS44MzgsLTIuMTI2IC0xMC4wODQsLTMuMTg3IC0xNC4zMzEsMy4xODhjLTQuMjQ2LDYuMzc2IC0xNi40NTQsMjAuNzI1IC0yMC4xNywyNC45NzZjLTMuNzE1LDQuMjUxIC03LjQzMSw0Ljc4NSAtMTMuOCwxLjU5NGMtNi4zNywtMy4xODcgLTI2Ljg5NSwtOS45MTMgLTUxLjIyNSwtMzEuNjE2Yy0xOC45MzUsLTE2Ljg5IC0zMS43MiwtMzcuNzQ5IC0zNS40MzUsLTQ0LjEyNmMtMy43MTYsLTYuMzc3IC0wLjM5NywtOS44MjQgMi43OTIsLTEzYzIuODY3LC0yLjg1NCA2LjM3MSwtNy40NCA5LjU1NSwtMTEuMTZjMy4xODYsLTMuNzE4IDQuMjQ3LC02LjM3NyA2LjM3LC0xMC42MjZjMi4xMjMsLTQuMjUyIDEuMDYyLC03Ljk3MSAtMC41MzIsLTExLjE1OWMtMS41OTEsLTMuMTg4IC0xNC4zMywtMzQuNTQyIC0xOS42MzgsLTQ3LjI5OGMtNS4xNzEsLTEyLjQxOSAtMTAuNDIyLC0xMC43MzcgLTE0LjMzMiwtMTAuOTM0Yy0zLjcxMSwtMC4xODQgLTcuOTYzLC0wLjIyMyAtMTIuMjA4LC0wLjIyM2MtNC4yNDYsMCAtMTEuMTQ4LDEuNTk0IC0xNi45ODcsNy45NjljLTUuODM4LDYuMzc3IC0yMi4yOTMsMjEuNzg5IC0yMi4yOTMsNTMuMTRjMCwzMS4zNTUgMjIuODI0LDYxLjY0MiAyNi4wMDksNjUuODk0YzMuMTg1LDQuMjUyIDQ0LjkxNiw2OC41OSAxMDguODE2LDk2LjE4MWMxNS4xOTYsNi41NjQgMjcuMDYyLDEwLjQ4MyAzNi4zMTIsMTMuNDE4YzE1LjI1OSw0Ljg0OSAyOS4xNDUsNC4xNjUgNDAuMTIxLDIuNTI0YzEyLjIzOCwtMS44MjcgMzcuNjg2LC0xNS40MDggNDIuOTk1LC0zMC4yODZjNS4zMDcsLTE0Ljg4MiA1LjMwNywtMjcuNjM1IDMuNzE1LC0zMC4yOTJjLTEuNTkyLC0yLjY1NyAtNS44MzgsLTQuMjUxIC0xMi4yMDgsLTcuNDRtLTExNi4yMjQsMTU4LjY5M2wtMC4wODYsMGMtMzguMDIyLC0wLjAxNSAtNzUuMzEzLC0xMC4yMyAtMTA3Ljg0NSwtMjkuNTM1bC03LjczOCwtNC41OTJsLTgwLjE5NCwyMS4wMzdsMjEuNDA1LC03OC4xOWwtNS4wMzcsLTguMDE3Yy0yMS4yMTEsLTMzLjczNSAtMzIuNDE0LC03Mi43MjYgLTMyLjM5NywtMTEyLjc2M2MwLjA0NywtMTE2LjgyNSA5NS4xLC0yMTEuODcgMjExLjk3NiwtMjExLjg3YzU2LjU5NSwwLjAxOSAxMDkuNzk1LDIyLjA4OCAxNDkuODAxLDYyLjEzOWM0MC4wMDUsNDAuMDUgNjIuMDIzLDkzLjI4NiA2Mi4wMDEsMTQ5LjkwMmMtMC4wNDgsMTE2LjgzNCAtOTUuMSwyMTEuODg5IC0yMTEuODg2LDIxMS44ODltMTgwLjMzMiwtMzkyLjIyNGMtNDguMTMxLC00OC4xODYgLTExMi4xMzgsLTc0LjczNSAtMTgwLjMzNSwtNzQuNzYzYy0xNDAuNTE0LDAgLTI1NC44NzUsMTE0LjM1NCAtMjU0LjkzMiwyNTQuOTExYy0wLjAxOCw0NC45MzIgMTEuNzIsODguNzg2IDM0LjAzLDEyNy40NDhsLTM2LjE2NiwxMzIuMTAybDEzNS4xNDEsLTM1LjQ1YzM3LjIzNiwyMC4zMSA3OS4xNTksMzEuMDE1IDEyMS44MjYsMzEuMDI5bDAuMTA1LDBjMTQwLjQ5OSwwIDI1NC44NywtMTE0LjM2NiAyNTQuOTI4LC0yNTQuOTI1YzAuMDI2LC02OC4xMTcgLTI2LjQ2NywtMTMyLjE2NiAtNzQuNTk3LC0xODAuMzUyIi8+PC9zdmc+;" parent="1" vertex="1">
          <mxGeometry x="144" y="541.5" width="52" height="52" as="geometry" />
        </mxCell>
        <mxCell id="lIbFjkNrD8yP0X1scrXw-2" style="edgeStyle=orthogonalEdgeStyle;rounded=0;orthogonalLoop=1;jettySize=auto;html=1;strokeWidth=4;startArrow=classic;startFill=1;" edge="1" parent="1" source="krXX1VKRWJ8w1nw-8fzc-13" target="lIbFjkNrD8yP0X1scrXw-1">
          <mxGeometry relative="1" as="geometry" />
        </mxCell>
        <mxCell id="krXX1VKRWJ8w1nw-8fzc-13" value="Raspberry" style="shape=image;verticalLabelPosition=bottom;labelBackgroundColor=default;verticalAlign=top;aspect=fixed;imageAspect=0;image=data:image/svg+xml,PHN2ZyB4bWxuczp4bGluaz0iaHR0cDovL3d3dy53My5vcmcvMTk5OS94bGluayIgeG1sbnM9Imh0dHA6Ly93d3cudzMub3JnLzIwMDAvc3ZnIiB2aWV3Qm94PSIwIDAgMjQgMjQiIGhlaWdodD0iMjQiIHdpZHRoPSIyNCIgaWQ9Im1kaS1yYXNwYmVycnktcGkiIHZlcnNpb249IjEuMSI+PHBhdGggZD0iTTIwLDhIMjJWMTBIMjBWOE00LDVIMjBBMiwyIDAgMCwxIDIyLDdIMTlWOUg1VjEzSDhWMTZIMTlWMTdIMjJBMiwyIDAgMCwxIDIwLDE5SDE2VjIwSDE0VjE5SDExVjIwSDdWMTlINEEyLDIgMCAwLDEgMiwxN1Y3QTIsMiAwIDAsMSA0LDVNMTksMTVIOVYxMEgxOVYxMUgyMlYxM0gxOVYxNU0xMywxMlYxNEgxNVYxMkgxM001LDZWOEg2VjZINU03LDZWOEg4VjZIN005LDZWOEgxMFY2SDlNMTEsNlY4SDEyVjZIMTFNMTMsNlY4SDE0VjZIMTNNMTUsNlY4SDE2VjZIMTVNMjAsMTRIMjJWMTZIMjBWMTRaIi8+PC9zdmc+;" parent="1" vertex="1">
          <mxGeometry x="420" y="280" width="80" height="80" as="geometry" />
        </mxCell>
        <mxCell id="krXX1VKRWJ8w1nw-8fzc-14" value="Config" style="shape=image;verticalLabelPosition=bottom;labelBackgroundColor=default;verticalAlign=top;aspect=fixed;imageAspect=0;image=data:image/svg+xml,PHN2ZyB4bWxucz0iaHR0cDovL3d3dy53My5vcmcvMjAwMC9zdmciIGZpbGw9Im5vbmUiIHZpZXdCb3g9IjAgMCAyNCAyNCIgaGVpZ2h0PSI4MDBweCIgd2lkdGg9IjgwMHB4Ij4mI3hhOzxwYXRoIHN0cm9rZS1saW5lam9pbj0icm91bmQiIHN0cm9rZS1saW5lY2FwPSJyb3VuZCIgc3Ryb2tlLXdpZHRoPSIyIiBzdHJva2U9IiMwMDAwMDAiIGQ9Ik0xMyAzSDguMkM3LjA3OTkgMyA2LjUxOTg0IDMgNi4wOTIwMiAzLjIxNzk5QzUuNzE1NjkgMy40MDk3MyA1LjQwOTczIDMuNzE1NjkgNS4yMTc5OSA0LjA5MjAyQzUgNC41MTk4NCA1IDUuMDc5OSA1IDYuMlYxNy44QzUgMTguOTIwMSA1IDE5LjQ4MDIgNS4yMTc5OSAxOS45MDhDNS40MDk3MyAyMC4yODQzIDUuNzE1NjkgMjAuNTkwMyA2LjA5MjAyIDIwLjc4MkM2LjUxOTg0IDIxIDcuMDc5OSAyMSA4LjIgMjFIMTBNMTMgM0wxOSA5TTEzIDNWNy40QzEzIDcuOTYwMDUgMTMgOC4yNDAwOCAxMy4xMDkgOC40NTM5OUMxMy4yMDQ5IDguNjQyMTUgMTMuMzU3OCA4Ljc5NTEzIDEzLjU0NiA4Ljg5MTAxQzEzLjc1OTkgOSAxNC4wMzk5IDkgMTQuNiA5SDE5TTE5IDlWMTBNOSAxN0gxMS41TTkgMTNIMTRNOSA5SDEwTTE0IDIxTDE2LjAyNSAyMC41OTVDMTYuMjAxNSAyMC41NTk3IDE2LjI4OTggMjAuNTQyIDE2LjM3MjEgMjAuNTA5N0MxNi40NDUyIDIwLjQ4MTEgMTYuNTE0NyAyMC40NDM5IDE2LjU3OSAyMC4zOTlDMTYuNjUxNiAyMC4zNDg0IDE2LjcxNTIgMjAuMjg0OCAxNi44NDI2IDIwLjE1NzRMMjEgMTZDMjEuNTUyMyAxNS40NDc3IDIxLjU1MjMgMTQuNTUyMyAyMSAxNEMyMC40NDc3IDEzLjQ0NzcgMTkuNTUyMyAxMy40NDc3IDE5IDE0TDE0Ljg0MjYgMTguMTU3NEMxNC43MTUyIDE4LjI4NDggMTQuNjUxNiAxOC4zNDg0IDE0LjYwMSAxOC40MjFDMTQuNTU2MSAxOC40ODUzIDE0LjUxODkgMTguNTU0OCAxNC40OTAzIDE4LjYyNzlDMTQuNDU4IDE4LjcxMDIgMTQuNDQwMyAxOC43OTg1IDE0LjQwNSAxOC45NzVMMTQgMjFaIi8+JiN4YTs8L3N2Zz4=;fillColor=#f5f5f5;fontColor=#333333;strokeColor=#000000;opacity=30;" parent="1" vertex="1">
          <mxGeometry x="620" y="150" width="70" height="70" as="geometry" />
        </mxCell>
        <mxCell id="krXX1VKRWJ8w1nw-8fzc-15" value="" style="endArrow=classic;html=1;rounded=0;exitX=0;exitY=0.5;exitDx=0;exitDy=0;entryX=1;entryY=0.5;entryDx=0;entryDy=0;fillColor=#f5f5f5;strokeColor=#000000;opacity=30;" parent="1" source="krXX1VKRWJ8w1nw-8fzc-14" target="krXX1VKRWJ8w1nw-8fzc-8" edge="1">
          <mxGeometry width="50" height="50" relative="1" as="geometry">
            <mxPoint x="280" y="240" as="sourcePoint" />
            <mxPoint x="400" y="170" as="targetPoint" />
          </mxGeometry>
        </mxCell>
        <mxCell id="krXX1VKRWJ8w1nw-8fzc-16" value="" style="endArrow=classic;html=1;rounded=0;exitX=0;exitY=0.5;exitDx=0;exitDy=0;entryX=0.9;entryY=-0.025;entryDx=0;entryDy=0;entryPerimeter=0;fillColor=#f5f5f5;strokeColor=#000000;opacity=30;" parent="1" source="krXX1VKRWJ8w1nw-8fzc-14" target="krXX1VKRWJ8w1nw-8fzc-13" edge="1">
          <mxGeometry width="50" height="50" relative="1" as="geometry">
            <mxPoint x="280" y="250" as="sourcePoint" />
            <mxPoint x="470" y="280" as="targetPoint" />
          </mxGeometry>
        </mxCell>
        <mxCell id="krXX1VKRWJ8w1nw-8fzc-26" value="&lt;b&gt;&lt;font style=&quot;font-size: 13px;&quot;&gt;18.10.2023 18:13 PIN: 1234&lt;/font&gt;&lt;/b&gt;" style="edgeLabel;html=1;align=center;verticalAlign=middle;resizable=0;points=[];fontColor=#00CC00;labelBackgroundColor=default;" parent="1" vertex="1" connectable="0">
          <mxGeometry x="620" y="490" as="geometry" />
        </mxCell>
        <mxCell id="krXX1VKRWJ8w1nw-8fzc-27" value="&lt;span style=&quot;font-size: 10px;&quot;&gt;&lt;font style=&quot;font-size: 10px;&quot;&gt;18.10.2023 20:15 PIN: 1234&lt;/font&gt;&lt;/span&gt;" style="edgeLabel;html=1;align=center;verticalAlign=middle;resizable=0;points=[];fontColor=#FF0000;fontStyle=0;fontSize=10;labelBackgroundColor=default;" parent="1" vertex="1" connectable="0">
          <mxGeometry x="620" y="510" as="geometry" />
        </mxCell>
        <mxCell id="krXX1VKRWJ8w1nw-8fzc-28" value="&lt;span style=&quot;font-size: 10px;&quot;&gt;&lt;font style=&quot;font-size: 10px;&quot;&gt;18.10.2023 17:45 PIN: 1234&lt;/font&gt;&lt;/span&gt;" style="edgeLabel;html=1;align=center;verticalAlign=middle;resizable=0;points=[];fontColor=#FF0000;fontStyle=0;fontSize=10;labelBackgroundColor=default;" parent="1" vertex="1" connectable="0">
          <mxGeometry x="630" y="470" as="geometry">
            <mxPoint x="-6" as="offset" />
          </mxGeometry>
        </mxCell>
        <mxCell id="krXX1VKRWJ8w1nw-8fzc-30" value="&lt;b&gt;&lt;font style=&quot;font-size: 13px;&quot;&gt;18.10.2023 18:00 - 20:00 PIN: 1234&lt;/font&gt;&lt;/b&gt;" style="edgeLabel;html=1;align=center;verticalAlign=middle;resizable=0;points=[];" parent="1" vertex="1" connectable="0">
          <mxGeometry x="310.00235294117635" y="550.0005882352941" as="geometry" />
        </mxCell>
        <mxCell id="lIbFjkNrD8yP0X1scrXw-1" value="" style="shadow=0;dashed=0;html=1;strokeColor=#00CC00;fillColor=#00CC00;labelPosition=center;verticalLabelPosition=bottom;verticalAlign=top;align=center;outlineConnect=0;shape=mxgraph.veeam.unlocked;" vertex="1" parent="1">
          <mxGeometry x="709" y="302.6" width="41.6" height="34.8" as="geometry" />
        </mxCell>
      </root>
    </mxGraphModel>
  </diagram>
</mxfile>
